<?xml version="1.0" encoding="UTF-8" standalone="no"?>
<!DOCTYPE svg PUBLIC "-//W3C//DTD SVG 1.1//EN" "http://www.w3.org/Graphics/SVG/1.1/DTD/svg11.dtd">
<svg width="100%" height="100%" viewBox="0 0 417 417" version="1.1" xmlns="http://www.w3.org/2000/svg" xmlns:xlink="http://www.w3.org/1999/xlink" xml:space="preserve" xmlns:serif="http://www.serif.com/" style="fill-rule:evenodd;clip-rule:evenodd;stroke-linejoin:round;stroke-miterlimit:2;">
    <g transform="matrix(2.083333,0,0,2.083333,-2656.25,-887.5)">
        <g id="Artboard1" transform="matrix(0.546752,0,0,0.880231,608.841982,132.844063)">
            <rect x="1218.392" y="333.044" width="365.797" height="227.213" style="fill:none;"/>
            <clipPath id="_clip1">
                <rect x="1218.392" y="333.044" width="365.797" height="227.213"/>
            </clipPath>
            <g clip-path="url(#_clip1)">
                <g transform="matrix(1.828984,0,0,1.136065,-1113.562293,-150.91949)">
                    <circle cx="1375" cy="526" r="100" style="fill:rgb(71,72,151);"/>
                    <clipPath id="_clip2">
                        <circle cx="1375" cy="526" r="100"/>
                    </clipPath>
                    <g clip-path="url(#_clip2)">
                        <g id="Export--subtracted-" serif:id="Export (subtracted)" transform="matrix(0.992261,0,0,0.992261,970.455436,-153.751889)">
                            <path d="M365.68,660.247C355.81,656.883 345.533,652.469 340.553,647.489C332.387,639.323 332.387,626.064 340.553,617.898C348.719,609.733 361.978,609.733 370.144,617.898C375.124,622.879 379.537,633.155 382.902,643.026C375.814,647.221 369.876,653.159 365.68,660.247ZM395.861,637.701C390.823,627.662 386.088,616.192 386.088,608.541C386.088,596.608 395.776,586.92 407.708,586.92C419.641,586.92 429.329,596.608 429.329,608.541C429.329,616.192 424.594,627.662 419.556,637.701C415.762,636.754 411.794,636.251 407.708,636.251C403.623,636.251 399.655,636.754 395.861,637.701ZM432.515,643.026C435.88,633.155 440.293,622.879 445.273,617.898C453.439,609.733 466.698,609.733 474.864,617.898C483.03,626.064 483.03,639.323 474.864,647.489C469.884,652.469 459.607,656.883 449.736,660.247C445.541,653.159 439.603,647.221 432.515,643.026ZM449.736,709.86C459.607,713.225 469.884,717.638 474.864,722.619C483.03,730.784 483.03,744.043 474.864,752.209C466.698,760.375 453.439,760.375 445.273,752.209C440.293,747.229 435.88,736.953 432.515,727.082C439.603,722.886 445.541,716.949 449.736,709.86ZM419.556,732.406C424.594,742.446 429.329,753.916 429.329,761.567C429.329,773.499 419.641,783.187 407.708,783.187C395.776,783.187 386.088,773.499 386.088,761.567C386.088,753.916 390.823,742.446 395.861,732.406C399.655,733.354 403.623,733.857 407.708,733.857C411.794,733.857 415.762,733.354 419.556,732.406ZM315.446,676.527C320.152,676.527 323.972,680.348 323.972,685.054C323.972,689.76 320.152,693.58 315.446,693.58C310.74,693.58 306.92,689.76 306.92,685.054C306.92,680.348 310.74,676.527 315.446,676.527ZM499.954,676.527C504.659,676.527 508.48,680.348 508.48,685.054C508.48,689.76 504.659,693.58 499.954,693.58C495.248,693.58 491.427,689.76 491.427,685.054C491.427,680.348 495.248,676.527 499.954,676.527Z" style="fill:white;"/>
                            <path d="M382.902,727.082C379.537,736.953 375.124,747.229 370.144,752.209C361.978,760.375 348.719,760.375 340.553,752.209C332.387,744.043 332.387,730.784 340.553,722.619C345.533,717.638 355.81,713.225 365.68,709.86C369.876,716.949 375.814,722.886 382.902,727.082Z" style="fill:rgb(225,148,255);"/>
                            <g transform="matrix(1.186026,0,0,1.186026,-75.844557,-127.438116)">
                                <circle cx="407.708" cy="685.054" r="26.908" style="fill:rgb(142,130,255);"/>
                            </g>
                            <g transform="matrix(0.469953,0,0,0.469953,141.684372,363.595472)">
                                <path d="M556.386,647.538L557.924,644.775L560.168,642.649L562.941,641.283L566.065,640.798L569.19,641.283L571.962,642.649L574.206,644.775L575.745,647.538L579.116,656.648C581.572,663.284 586.803,668.516 593.439,670.971L602.55,674.343L605.312,675.881L607.438,678.125L608.805,680.898L609.289,684.022L608.805,687.147L607.438,689.919L605.312,692.163L602.55,693.702L593.439,697.073C586.803,699.528 581.572,704.76 579.116,711.396L575.745,720.507L574.206,723.269L571.962,725.395L569.19,726.762L566.065,727.246L562.941,726.762L560.168,725.395L557.924,723.269L556.386,720.507L553.014,711.396C550.559,704.76 545.327,699.528 538.691,697.073L529.581,693.702L526.818,692.163L524.692,689.919L523.326,687.147L522.842,684.022L523.326,680.898L524.692,678.125L526.818,675.881L529.581,674.343L538.691,670.971C545.327,668.516 550.559,663.284 553.014,656.648L556.386,647.538Z" style="fill:white;"/>
                            </g>
                        </g>
                    </g>
                </g>
            </g>
        </g>
    </g>
</svg>
